<?xml version="1.0" encoding="utf-8"?>
<!-- Generator: Adobe Illustrator 16.0.3, SVG Export Plug-In . SVG Version: 6.00 Build 0)  -->
<!DOCTYPE svg PUBLIC "-//W3C//DTD SVG 1.1//EN" "http://www.w3.org/Graphics/SVG/1.1/DTD/svg11.dtd">
<svg version="1.1" id="Layer_1" xmlns="http://www.w3.org/2000/svg" xmlns:xlink="http://www.w3.org/1999/xlink" x="0px" y="0px"
	 width="54.994px" height="17.321px" viewBox="0 18.839 54.994 17.321" enable-background="new 0 18.839 54.994 17.321"
	 xml:space="preserve">
<title>FACS-Logo</title>
<g>
	<path fill="#FFFFFF" d="M10.734,30.688v-0.014h-0.027c0.021-0.215-0.001-0.431-0.064-0.637c-0.154-0.528-0.469-0.775-1.039-0.904
		c-0.085-0.007-0.168-0.029-0.245-0.064c-0.102-0.088-0.113-0.565-0.13-0.753c-0.054-0.565-0.113-0.967-0.168-1.529
		c-0.044-0.437-0.064-0.849-0.234-1.205c-0.132-0.255-0.327-0.474-0.565-0.636c-0.167-0.113-0.369-0.203-0.565-0.311
		c-0.365-0.197-0.762-0.405-1.154-0.61c-0.164-0.086-0.47-0.19-0.543-0.323c-0.059-0.107-0.058-0.339-0.078-0.467
		c-0.072-0.462-0.151-0.95-0.226-1.438c-0.13-0.047-0.302-0.017-0.452-0.014C5.177,22,5.125,22.221,5.089,22.445
		c-0.045,0.239-0.051,0.494-0.143,0.698c-0.26-0.104-0.432-0.316-0.623-0.492c-0.191-0.175-0.384-0.359-0.583-0.532
		c-0.111,0.062-0.212,0.141-0.298,0.234c0.178,0.535,0.409,1.017,0.595,1.542c-0.156,0.201-0.386,0.33-0.557,0.519
		c0.046,0.133,0.117,0.256,0.209,0.363c0.191-0.052,0.386-0.086,0.582-0.104c-0.01,0.116-0.049,0.227-0.113,0.324
		c-0.062,0.102-0.115,0.209-0.16,0.32c0.014,0.102,0.128,0.144,0.177,0.18c0.048,0.036,0.134,0.113,0.216,0.096
		c0.081-0.017,0.192-0.173,0.26-0.245c0.044-0.047,0.09-0.093,0.129-0.13c0.038-0.037,0.084-0.106,0.142-0.078
		c0.013,0.1,0.045,0.207,0.053,0.339c0,0.099,0,0.313,0.047,0.316c0.162,0.017,0.282,0,0.418,0.021
		c0.116-0.241,0.22-0.488,0.311-0.739c0.034-0.084,0.062-0.193,0.13-0.208s0.248,0.088,0.339,0.143
		c0.173,0.105,0.282,0.173,0.452,0.272c0.166,0.09,0.314,0.209,0.44,0.35c0.122,0.157,0.277,0.452,0.285,0.609
		c0.003,0.135-0.027,0.27-0.089,0.39c-1.182-0.076-2.353-0.136-3.487-0.194c-0.028,0.123-0.102,0.249-0.077,0.362
		c0.017,0.083,0.135,0.141,0.226,0.208c0.081,0.057,0.159,0.117,0.233,0.182c0.102,0.101,0.113,0.19,0.207,0.259
		c0.233,0.021,0.467,0.03,0.701,0.026c0.225,0.025,0.451,0.039,0.678,0.039c0.13-0.009,0.226-0.107,0.339-0.077
		c0.051,0.096,0.055,0.209,0.013,0.31c-0.242,0.046-0.537,0.011-0.828,0c-0.292-0.011-0.587-0.025-0.857-0.039
		c-0.057,0.1-0.061,0.221-0.012,0.325c0.473,0.011,0.965,0,1.4,0.052c0.204,0.028,0.404,0.081,0.596,0.155
		c0.185,0.053,0.363,0.127,0.531,0.221c0.081,0.056,0.308,0.31,0.234,0.441c-0.043,0.074-0.413,0.061-0.61,0.051
		c-0.237-0.01-0.452-0.013-0.646-0.013c-0.409,0-0.896-0.049-1.31-0.014c-0.415,0.048-0.802,0.23-1.102,0.52
		c-0.081,0.081-0.162,0.18-0.238,0.272c-0.078,0.09-0.142,0.189-0.19,0.297c-0.095,0.227-0.073,0.443-0.129,0.679H0V19.11h11.667
		v11.578H10.734z"/>
</g>
<path fill="#FFFFFF" d="M0,33.263h1.425v0.121H0.14v0.909h1.157v0.121H0.14v1.121H0V33.263z"/>
<path fill="#FFFFFF" d="M1.604,34.717c-0.001-0.111,0.016-0.223,0.049-0.33c0.031-0.099,0.08-0.191,0.145-0.271
	c0.065-0.078,0.146-0.143,0.237-0.186c0.1-0.047,0.21-0.071,0.321-0.069c0.111-0.001,0.221,0.022,0.321,0.069
	c0.091,0.043,0.171,0.107,0.235,0.186c0.065,0.08,0.114,0.173,0.146,0.271c0.032,0.107,0.048,0.219,0.047,0.33
	c0,0.112-0.016,0.225-0.047,0.332c-0.031,0.099-0.081,0.191-0.146,0.271c-0.064,0.078-0.144,0.141-0.235,0.185
	c-0.101,0.046-0.21,0.069-0.321,0.067c-0.11,0.003-0.22-0.021-0.321-0.067c-0.091-0.044-0.172-0.106-0.237-0.185
	c-0.065-0.08-0.114-0.173-0.145-0.271C1.62,34.941,1.604,34.829,1.604,34.717z M1.726,34.717c0,0.096,0.014,0.19,0.041,0.281
	c0.026,0.087,0.067,0.168,0.121,0.24c0.053,0.069,0.121,0.127,0.198,0.167c0.254,0.133,0.566,0.062,0.738-0.167
	c0.055-0.072,0.096-0.153,0.122-0.24c0.053-0.184,0.053-0.38,0-0.564c-0.027-0.086-0.068-0.168-0.122-0.24
	c-0.176-0.225-0.487-0.295-0.742-0.166c-0.077,0.041-0.145,0.099-0.198,0.168c-0.054,0.072-0.095,0.153-0.121,0.239
	C1.736,34.526,1.724,34.621,1.726,34.717z"/>
<path fill="#FFFFFF" d="M3.612,34.262h0.009c0.017-0.055,0.044-0.105,0.082-0.149c0.041-0.048,0.089-0.089,0.144-0.12
	c0.059-0.035,0.122-0.063,0.188-0.078c0.07-0.019,0.142-0.026,0.214-0.023v0.126c-0.073-0.009-0.147-0.001-0.217,0.019
	c-0.089,0.025-0.169,0.074-0.234,0.141c-0.028,0.029-0.055,0.06-0.079,0.092c-0.022,0.03-0.041,0.063-0.055,0.098
	c-0.016,0.039-0.027,0.08-0.034,0.121c-0.01,0.053-0.015,0.105-0.017,0.16v0.895h-0.12v-1.638h0.12V34.262z"/>
<path fill="#FFFFFF" d="M4.483,34.732v0.02c0,0.093,0.013,0.185,0.039,0.273c0.023,0.082,0.062,0.158,0.113,0.227
	c0.05,0.066,0.115,0.119,0.189,0.156c0.082,0.039,0.172,0.059,0.263,0.057c0.142,0.008,0.281-0.038,0.39-0.129
	c0.101-0.096,0.169-0.221,0.197-0.357h0.122c-0.024,0.169-0.107,0.324-0.234,0.439c-0.135,0.106-0.305,0.16-0.477,0.152
	c-0.109,0.002-0.217-0.02-0.316-0.064c-0.087-0.043-0.164-0.104-0.226-0.179c-0.062-0.079-0.107-0.171-0.134-0.268
	c-0.03-0.108-0.045-0.22-0.044-0.332c-0.001-0.112,0.015-0.224,0.045-0.33c0.028-0.101,0.075-0.194,0.139-0.276
	c0.209-0.252,0.561-0.334,0.86-0.198c0.088,0.04,0.165,0.099,0.226,0.173c0.061,0.076,0.106,0.162,0.136,0.254
	c0.031,0.102,0.047,0.205,0.046,0.311c0.001,0.013,0.001,0.024,0,0.037c0,0.014,0,0.024,0,0.033L4.483,34.732z M5.686,34.628
	c-0.003-0.086-0.018-0.171-0.044-0.253c-0.024-0.076-0.063-0.148-0.113-0.211c-0.05-0.061-0.112-0.111-0.182-0.147
	c-0.076-0.037-0.16-0.056-0.244-0.054c-0.089-0.002-0.178,0.017-0.259,0.056c-0.072,0.035-0.136,0.085-0.188,0.146
	c-0.05,0.063-0.088,0.135-0.113,0.212c-0.027,0.081-0.044,0.164-0.051,0.249L5.686,34.628z"/>
<path fill="#FFFFFF" d="M6.191,33.903h0.121v0.351h0.007c0.02-0.06,0.051-0.115,0.09-0.164c0.04-0.047,0.085-0.089,0.137-0.123
	c0.053-0.033,0.11-0.059,0.171-0.076c0.061-0.017,0.125-0.025,0.188-0.025c0.082-0.002,0.164,0.01,0.242,0.035
	c0.061,0.02,0.116,0.051,0.164,0.092c0.041,0.037,0.074,0.081,0.101,0.129c0.024,0.046,0.042,0.095,0.052,0.145
	c0.011,0.047,0.018,0.094,0.02,0.143c0,0.045,0,0.085,0,0.119v1.018H7.362V34.51c0-0.052-0.004-0.103-0.01-0.153
	c-0.006-0.062-0.025-0.122-0.054-0.177c-0.035-0.059-0.083-0.107-0.141-0.145c-0.079-0.045-0.169-0.065-0.26-0.061
	c-0.085-0.002-0.169,0.016-0.247,0.051c-0.071,0.033-0.134,0.082-0.185,0.143c-0.052,0.063-0.09,0.137-0.113,0.216
	c-0.027,0.089-0.041,0.183-0.04,0.276v0.885H6.191V33.903z"/>
<path fill="#FFFFFF" d="M7.985,34.99c0.001,0.07,0.019,0.139,0.05,0.201c0.058,0.116,0.159,0.205,0.283,0.244
	c0.067,0.021,0.137,0.033,0.208,0.031c0.057,0,0.113-0.004,0.169-0.013c0.058-0.01,0.115-0.027,0.168-0.054
	c0.051-0.024,0.095-0.061,0.13-0.105c0.035-0.051,0.053-0.112,0.051-0.174c0.005-0.078-0.025-0.154-0.083-0.207
	c-0.062-0.051-0.132-0.09-0.208-0.113c-0.089-0.025-0.179-0.047-0.27-0.061C8.39,34.725,8.3,34.7,8.212,34.668
	c-0.079-0.029-0.15-0.076-0.209-0.137c-0.099-0.133-0.11-0.313-0.028-0.457c0.036-0.053,0.083-0.098,0.138-0.129
	c0.059-0.033,0.123-0.056,0.188-0.068c0.07-0.014,0.141-0.021,0.211-0.021c0.081,0,0.161,0.01,0.238,0.029
	c0.07,0.018,0.136,0.049,0.192,0.094c0.054,0.043,0.098,0.098,0.126,0.161c0.033,0.075,0.049,0.156,0.046,0.238H8.995
	c0.001-0.065-0.011-0.13-0.036-0.19c-0.023-0.051-0.058-0.096-0.103-0.129C8.811,34.024,8.759,34,8.704,33.984
	c-0.063-0.016-0.126-0.023-0.191-0.023c-0.057,0-0.113,0.006-0.168,0.018c-0.053,0.009-0.104,0.027-0.15,0.053
	c-0.044,0.023-0.083,0.059-0.113,0.1c-0.03,0.043-0.045,0.094-0.043,0.146c-0.002,0.057,0.014,0.112,0.046,0.159
	c0.034,0.042,0.077,0.074,0.126,0.096c0.056,0.027,0.115,0.047,0.175,0.061l0.195,0.044c0.081,0.015,0.156,0.032,0.226,0.054
	c0.065,0.018,0.127,0.045,0.183,0.082c0.052,0.033,0.094,0.08,0.123,0.135c0.032,0.064,0.047,0.137,0.044,0.21
	c0.004,0.077-0.018,0.154-0.061,0.22c-0.04,0.057-0.092,0.104-0.153,0.139c-0.063,0.035-0.132,0.061-0.203,0.073
	c-0.075,0.014-0.15,0.021-0.226,0.021c-0.088,0-0.176-0.012-0.26-0.037c-0.076-0.022-0.147-0.061-0.208-0.112
	c-0.059-0.05-0.107-0.112-0.14-0.183c-0.036-0.078-0.054-0.164-0.053-0.252L7.985,34.99z"/>
<path fill="#FFFFFF" d="M9.569,33.59v-0.327H9.69v0.327H9.569z M9.569,35.535v-1.632H9.69v1.637L9.569,35.535z"/>
<path fill="#FFFFFF" d="M11.4,34.405c-0.005-0.067-0.024-0.132-0.055-0.19c-0.028-0.053-0.066-0.1-0.113-0.137
	c-0.052-0.037-0.11-0.065-0.171-0.083c-0.068-0.021-0.138-0.03-0.208-0.029c-0.094-0.002-0.187,0.02-0.27,0.062
	c-0.077,0.041-0.145,0.098-0.198,0.166c-0.053,0.07-0.095,0.15-0.122,0.234c-0.027,0.089-0.041,0.182-0.041,0.273
	c0,0.104,0.013,0.205,0.038,0.305c0.024,0.088,0.065,0.171,0.119,0.244c0.053,0.068,0.121,0.123,0.198,0.161
	c0.087,0.039,0.182,0.059,0.277,0.056c0.073,0.002,0.145-0.012,0.212-0.037c0.063-0.024,0.121-0.061,0.17-0.105
	c0.051-0.045,0.093-0.1,0.124-0.16c0.032-0.064,0.054-0.134,0.064-0.205h0.12c-0.011,0.092-0.038,0.18-0.08,0.262
	c-0.075,0.146-0.205,0.258-0.362,0.311c-0.08,0.027-0.164,0.042-0.249,0.041c-0.117,0.003-0.233-0.021-0.339-0.07
	c-0.089-0.047-0.167-0.113-0.226-0.193c-0.068-0.081-0.118-0.174-0.149-0.275c-0.028-0.107-0.042-0.218-0.042-0.328
	c0-0.111,0.016-0.221,0.049-0.326c0.03-0.098,0.079-0.188,0.144-0.267c0.065-0.077,0.146-0.138,0.237-0.181
	c0.101-0.047,0.21-0.07,0.321-0.068c0.084,0,0.168,0.012,0.25,0.033c0.074,0.021,0.145,0.056,0.207,0.102
	c0.062,0.045,0.112,0.104,0.148,0.17c0.04,0.074,0.064,0.156,0.07,0.24L11.4,34.405z"/>
<path fill="#FFFFFF" d="M13.607,33.263h0.151l0.897,2.272h-0.145l-0.292-0.728h-1.088l-0.291,0.729h-0.149L13.607,33.263z
	 M14.172,34.686l-0.487-1.286l0,0l-0.506,1.286H14.172z"/>
<path fill="#FFFFFF" d="M14.925,33.903h0.12v0.351h0.008c0.02-0.061,0.05-0.115,0.09-0.164c0.08-0.097,0.187-0.166,0.308-0.199
	c0.061-0.017,0.124-0.025,0.188-0.025c0.083-0.002,0.165,0.01,0.243,0.035c0.061,0.02,0.117,0.051,0.165,0.092
	c0.041,0.037,0.074,0.081,0.099,0.129c0.023,0.047,0.042,0.096,0.053,0.145c0.01,0.047,0.016,0.094,0.018,0.143
	c0,0.045,0,0.085,0,0.119v1.018h-0.121V34.51c0-0.052-0.003-0.103-0.009-0.153c-0.007-0.062-0.026-0.122-0.057-0.177
	c-0.033-0.059-0.082-0.108-0.14-0.145c-0.079-0.045-0.168-0.065-0.259-0.061c-0.085-0.002-0.17,0.016-0.249,0.051
	c-0.071,0.033-0.133,0.082-0.183,0.143c-0.052,0.063-0.091,0.137-0.113,0.216c-0.028,0.089-0.042,0.183-0.042,0.276v0.885h-0.12
	V33.903z"/>
<path fill="#FFFFFF" d="M17.757,35.21H17.75c-0.021,0.05-0.048,0.097-0.082,0.139c-0.039,0.044-0.083,0.083-0.133,0.113
	c-0.054,0.036-0.114,0.063-0.176,0.08c-0.07,0.019-0.143,0.028-0.216,0.028c-0.144,0.01-0.286-0.031-0.403-0.113
	c-0.101-0.086-0.155-0.215-0.145-0.348c-0.003-0.082,0.018-0.163,0.059-0.234c0.036-0.059,0.084-0.107,0.144-0.143
	c0.061-0.036,0.126-0.062,0.195-0.075c0.067-0.015,0.136-0.024,0.205-0.032l0.188-0.016c0.069-0.004,0.138-0.014,0.206-0.03
	c0.042-0.01,0.081-0.029,0.113-0.056c0.026-0.025,0.042-0.06,0.046-0.096c0.007-0.047,0.011-0.095,0.01-0.143
	c0.001-0.043-0.008-0.085-0.026-0.124c-0.018-0.04-0.045-0.075-0.079-0.102c-0.041-0.033-0.089-0.058-0.14-0.07
	c-0.068-0.019-0.138-0.027-0.209-0.026c-0.128-0.004-0.254,0.035-0.356,0.113c-0.095,0.082-0.148,0.203-0.147,0.328h-0.121
	c-0.004-0.154,0.059-0.302,0.173-0.406c0.131-0.098,0.293-0.146,0.458-0.135c0.152-0.015,0.305,0.025,0.431,0.112
	c0.089,0.075,0.139,0.188,0.136,0.304v0.952c0,0.023,0,0.046,0,0.069c0,0.021,0.004,0.043,0.011,0.064
	c0.011,0.041,0.052,0.068,0.095,0.063c0.03-0.001,0.06-0.004,0.089-0.009v0.102c-0.032,0.009-0.065,0.014-0.099,0.014
	c-0.038,0.001-0.077-0.005-0.113-0.019c-0.026-0.012-0.048-0.029-0.065-0.053c-0.015-0.022-0.026-0.048-0.031-0.074
	c-0.005-0.031-0.008-0.063-0.008-0.094L17.757,35.21z M17.757,34.605c-0.035,0.039-0.083,0.064-0.135,0.073
	c-0.066,0.015-0.134,0.023-0.202,0.028l-0.204,0.02c-0.06,0.006-0.12,0.016-0.178,0.027c-0.057,0.01-0.111,0.029-0.161,0.059
	c-0.047,0.027-0.086,0.066-0.113,0.113c-0.033,0.057-0.049,0.121-0.045,0.188c-0.008,0.102,0.034,0.203,0.113,0.269
	c0.093,0.063,0.204,0.094,0.315,0.087c0.114,0.006,0.227-0.02,0.327-0.074c0.074-0.044,0.137-0.103,0.187-0.172
	c0.038-0.058,0.065-0.121,0.082-0.188c0.008-0.041,0.013-0.082,0.016-0.123L17.757,34.605z"/>
<path fill="#FFFFFF" d="M18.509,33.263v2.272h-0.121v-2.272H18.509z"/>
<path fill="#FFFFFF" d="M18.805,33.903h0.144l0.607,1.493l0.565-1.493h0.137l-0.701,1.808c-0.034,0.082-0.064,0.15-0.092,0.21
	c-0.023,0.05-0.057,0.093-0.099,0.128c-0.043,0.035-0.095,0.057-0.15,0.063c-0.075,0.008-0.15,0.012-0.226,0.012v-0.106
	c0.069,0.003,0.137-0.005,0.204-0.021c0.052-0.016,0.099-0.044,0.137-0.084c0.032-0.037,0.057-0.081,0.072-0.129
	c0.026-0.063,0.058-0.147,0.095-0.256L18.805,33.903z"/>
<path fill="#FFFFFF" d="M21.231,34.004h-0.356v1.143c-0.002,0.053,0.005,0.105,0.023,0.154c0.012,0.037,0.036,0.068,0.069,0.089
	c0.034,0.022,0.073,0.034,0.113,0.036c0.051,0.004,0.102,0.004,0.152,0v0.105c-0.06,0.006-0.12,0.006-0.181,0
	c-0.054-0.004-0.106-0.02-0.153-0.047c-0.047-0.028-0.084-0.07-0.106-0.119c-0.03-0.069-0.042-0.145-0.034-0.22v-1.142h-0.301
	v-0.101h0.301v-0.509h0.121v0.509h0.356L21.231,34.004z"/>
<path fill="#FFFFFF" d="M21.561,33.59v-0.327h0.122v0.327H21.561z M21.561,35.535v-1.632h0.122v1.637L21.561,35.535z"/>
<path fill="#FFFFFF" d="M23.391,34.405c-0.005-0.067-0.024-0.132-0.055-0.19c-0.028-0.053-0.067-0.1-0.113-0.137
	c-0.052-0.038-0.11-0.066-0.172-0.083c-0.067-0.021-0.137-0.03-0.208-0.029c-0.094-0.002-0.186,0.02-0.27,0.062
	c-0.077,0.041-0.144,0.098-0.198,0.166c-0.053,0.07-0.094,0.15-0.121,0.234c-0.027,0.089-0.041,0.181-0.041,0.273
	c-0.001,0.104,0.011,0.205,0.038,0.305c0.022,0.088,0.06,0.171,0.113,0.244c0.053,0.068,0.121,0.123,0.198,0.161
	c0.087,0.039,0.182,0.059,0.277,0.056c0.142,0.002,0.278-0.049,0.384-0.143c0.05-0.045,0.091-0.1,0.121-0.16
	c0.032-0.064,0.054-0.134,0.064-0.205h0.121c-0.011,0.091-0.038,0.18-0.079,0.262c-0.039,0.072-0.091,0.137-0.153,0.191
	c-0.063,0.051-0.133,0.088-0.209,0.113c-0.08,0.027-0.164,0.042-0.249,0.041c-0.117,0.004-0.233-0.021-0.339-0.07
	c-0.092-0.045-0.172-0.111-0.233-0.193c-0.062-0.084-0.107-0.178-0.134-0.278c-0.029-0.106-0.043-0.218-0.043-0.329
	c0-0.109,0.016-0.22,0.05-0.325c0.03-0.098,0.079-0.188,0.145-0.267c0.064-0.077,0.145-0.139,0.236-0.181
	c0.1-0.047,0.21-0.07,0.321-0.067c0.084-0.001,0.168,0.01,0.25,0.032c0.075,0.021,0.145,0.056,0.207,0.102
	c0.061,0.045,0.112,0.103,0.148,0.169c0.04,0.075,0.063,0.157,0.07,0.241L23.391,34.405z"/>
<path fill="#FFFFFF" d="M24.994,35.21h-0.007c-0.02,0.05-0.047,0.098-0.083,0.139c-0.038,0.044-0.082,0.083-0.131,0.113
	c-0.055,0.035-0.115,0.062-0.177,0.08c-0.07,0.019-0.143,0.028-0.216,0.028c-0.144,0.01-0.287-0.03-0.405-0.113
	c-0.101-0.086-0.154-0.215-0.143-0.348c-0.003-0.082,0.017-0.163,0.058-0.234c0.036-0.059,0.086-0.107,0.146-0.143
	c0.06-0.036,0.125-0.062,0.193-0.075c0.068-0.015,0.137-0.024,0.206-0.032l0.188-0.016c0.069-0.004,0.138-0.014,0.205-0.03
	c0.042-0.009,0.081-0.028,0.113-0.056c0.026-0.025,0.043-0.06,0.047-0.096c0.007-0.047,0.011-0.095,0.01-0.143
	c0-0.043-0.009-0.085-0.026-0.124c-0.018-0.04-0.045-0.075-0.08-0.102c-0.041-0.033-0.088-0.057-0.139-0.07
	c-0.068-0.019-0.139-0.027-0.21-0.026c-0.128-0.004-0.253,0.036-0.355,0.113c-0.094,0.083-0.148,0.202-0.148,0.328h-0.12
	c-0.004-0.154,0.059-0.303,0.173-0.406c0.13-0.097,0.29-0.145,0.452-0.135c0.152-0.015,0.305,0.025,0.43,0.112
	c0.089,0.075,0.14,0.188,0.136,0.304v0.952c0,0.023,0,0.046,0,0.069c0,0.021,0.004,0.043,0.01,0.064
	c0.006,0.018,0.018,0.033,0.033,0.046c0.019,0.013,0.041,0.019,0.063,0.017c0.029-0.001,0.059-0.004,0.088-0.009v0.102
	c-0.032,0.009-0.065,0.014-0.098,0.014c-0.039,0.001-0.077-0.005-0.113-0.019c-0.026-0.012-0.049-0.029-0.065-0.053
	c-0.015-0.022-0.026-0.048-0.03-0.074c-0.005-0.031-0.008-0.063-0.008-0.094L24.994,35.21z M24.994,34.605
	c-0.035,0.039-0.083,0.065-0.136,0.073c-0.066,0.015-0.133,0.023-0.201,0.028l-0.204,0.02c-0.061,0.006-0.12,0.016-0.178,0.027
	c-0.057,0.01-0.112,0.03-0.162,0.059c-0.046,0.028-0.085,0.067-0.113,0.113c-0.032,0.057-0.047,0.121-0.044,0.188
	c-0.008,0.102,0.034,0.202,0.113,0.269c0.092,0.063,0.203,0.093,0.314,0.087c0.114,0.006,0.228-0.02,0.328-0.074
	c0.073-0.044,0.137-0.103,0.186-0.172c0.039-0.057,0.066-0.121,0.08-0.188c0.01-0.041,0.016-0.082,0.018-0.123L24.994,34.605z"/>
<path fill="#FFFFFF" d="M25.745,33.263v2.272h-0.122v-2.272H25.745z"/>
<path fill="#FFFFFF" d="M27.154,34.398c-0.001-0.158,0.023-0.315,0.072-0.466c0.044-0.139,0.116-0.268,0.211-0.378
	c0.093-0.109,0.209-0.195,0.339-0.255c0.143-0.062,0.296-0.093,0.452-0.091c0.119-0.004,0.236,0.015,0.349,0.053
	c0.089,0.029,0.172,0.073,0.246,0.13c0.063,0.048,0.118,0.105,0.165,0.169c0.037,0.056,0.069,0.113,0.096,0.175
	c0.02,0.045,0.035,0.092,0.045,0.14c0.01,0.04,0.014,0.062,0.014,0.064h-0.14c-0.013-0.09-0.044-0.178-0.093-0.256
	c-0.046-0.073-0.105-0.139-0.174-0.191c-0.07-0.054-0.15-0.095-0.235-0.121c-0.088-0.028-0.18-0.043-0.272-0.041
	c-0.267-0.006-0.522,0.111-0.692,0.316c-0.083,0.101-0.145,0.216-0.184,0.34c-0.086,0.27-0.086,0.559,0,0.828
	c0.039,0.123,0.102,0.238,0.184,0.339c0.171,0.206,0.426,0.321,0.692,0.316c0.108,0.001,0.215-0.022,0.313-0.069
	c0.094-0.043,0.18-0.105,0.252-0.18c0.146-0.154,0.234-0.354,0.248-0.566h0.141c-0.012,0.131-0.046,0.258-0.101,0.376
	c-0.052,0.11-0.121,0.211-0.207,0.297c-0.083,0.084-0.183,0.15-0.292,0.196c-0.111,0.047-0.231,0.07-0.354,0.069
	c-0.155,0.002-0.309-0.029-0.452-0.091c-0.13-0.06-0.246-0.146-0.339-0.254c-0.095-0.111-0.167-0.24-0.211-0.379
	C27.177,34.718,27.152,34.559,27.154,34.398z"/>
<path fill="#FFFFFF" d="M29.484,34.717c-0.001-0.111,0.016-0.223,0.049-0.33c0.031-0.099,0.08-0.191,0.145-0.271
	c0.064-0.078,0.145-0.142,0.236-0.186c0.204-0.092,0.438-0.092,0.643,0c0.092,0.043,0.172,0.107,0.235,0.186
	c0.064,0.08,0.113,0.173,0.145,0.271c0.033,0.107,0.05,0.219,0.048,0.33c0.002,0.112-0.016,0.225-0.048,0.332
	c-0.03,0.099-0.079,0.191-0.145,0.271c-0.063,0.078-0.145,0.141-0.235,0.185c-0.205,0.091-0.438,0.091-0.643,0
	c-0.092-0.044-0.172-0.106-0.236-0.185c-0.065-0.08-0.114-0.173-0.145-0.271C29.5,34.941,29.483,34.829,29.484,34.717z
	 M29.605,34.717c0,0.096,0.014,0.19,0.041,0.281c0.025,0.087,0.066,0.168,0.121,0.24c0.052,0.07,0.119,0.127,0.197,0.167
	c0.171,0.083,0.37,0.083,0.541,0c0.078-0.04,0.145-0.097,0.197-0.167c0.054-0.072,0.095-0.153,0.119-0.24
	c0.057-0.184,0.057-0.381,0-0.564c-0.025-0.086-0.065-0.168-0.119-0.24c-0.053-0.069-0.12-0.127-0.197-0.166
	c-0.171-0.084-0.37-0.084-0.541,0c-0.078,0.039-0.145,0.097-0.197,0.166c-0.055,0.072-0.096,0.154-0.121,0.24
	C29.619,34.525,29.605,34.621,29.605,34.717z"/>
<path fill="#FFFFFF" d="M31.371,33.903h0.121v0.351h0.006c0.02-0.061,0.051-0.115,0.09-0.164c0.04-0.047,0.086-0.089,0.137-0.123
	c0.054-0.033,0.111-0.059,0.172-0.076c0.061-0.017,0.123-0.025,0.188-0.025c0.082-0.002,0.164,0.01,0.242,0.035
	c0.061,0.02,0.116,0.051,0.164,0.092c0.041,0.037,0.075,0.08,0.101,0.129c0.024,0.046,0.042,0.095,0.052,0.145
	c0.011,0.047,0.018,0.094,0.021,0.143c0,0.045,0,0.085,0,0.119v1.018h-0.12V34.51c-0.002-0.052-0.005-0.103-0.011-0.153
	c-0.006-0.062-0.024-0.122-0.056-0.177c-0.033-0.059-0.082-0.108-0.141-0.145c-0.078-0.045-0.168-0.065-0.258-0.061
	c-0.086-0.002-0.171,0.016-0.249,0.051c-0.071,0.033-0.134,0.082-0.183,0.143c-0.053,0.063-0.091,0.137-0.113,0.216
	c-0.027,0.089-0.041,0.183-0.039,0.276v0.885h-0.123V33.903z"/>
<path fill="#FFFFFF" d="M33.162,34.99c0.004,0.07,0.021,0.139,0.051,0.201c0.027,0.058,0.066,0.108,0.113,0.15
	c0.049,0.042,0.106,0.074,0.168,0.094c0.066,0.021,0.137,0.033,0.207,0.031c0.057,0,0.113-0.004,0.169-0.013
	c0.058-0.01,0.115-0.028,0.169-0.054c0.051-0.023,0.095-0.061,0.129-0.105c0.035-0.051,0.054-0.112,0.051-0.174
	c0.006-0.078-0.024-0.154-0.082-0.207c-0.062-0.051-0.133-0.09-0.209-0.113c-0.089-0.025-0.179-0.047-0.27-0.061
	c-0.093-0.016-0.184-0.04-0.271-0.072c-0.079-0.029-0.15-0.076-0.208-0.137c-0.06-0.07-0.09-0.162-0.083-0.255
	c-0.002-0.071,0.017-0.142,0.053-0.202c0.037-0.053,0.084-0.098,0.14-0.129c0.06-0.032,0.122-0.055,0.188-0.068
	c0.069-0.014,0.14-0.021,0.211-0.021c0.08,0,0.16,0.01,0.238,0.029c0.07,0.018,0.137,0.049,0.193,0.094
	c0.055,0.043,0.098,0.098,0.127,0.161c0.033,0.075,0.048,0.157,0.045,0.238h-0.117c0.002-0.065-0.01-0.13-0.035-0.19
	c-0.023-0.052-0.059-0.096-0.104-0.129c-0.046-0.034-0.098-0.059-0.154-0.074c-0.063-0.016-0.126-0.023-0.19-0.023
	c-0.056,0-0.111,0.006-0.166,0.018c-0.054,0.009-0.104,0.026-0.151,0.053c-0.045,0.024-0.084,0.059-0.113,0.1
	c-0.029,0.043-0.045,0.094-0.043,0.146c-0.002,0.058,0.015,0.112,0.048,0.159c0.033,0.041,0.076,0.074,0.125,0.096
	c0.056,0.027,0.114,0.047,0.175,0.061l0.196,0.044c0.076,0.015,0.151,0.032,0.226,0.054c0.066,0.018,0.129,0.045,0.186,0.082
	c0.051,0.033,0.094,0.08,0.122,0.135c0.032,0.064,0.048,0.137,0.045,0.21c0.003,0.077-0.018,0.154-0.061,0.22
	c-0.04,0.057-0.093,0.104-0.153,0.139c-0.063,0.035-0.133,0.061-0.204,0.073c-0.075,0.014-0.149,0.021-0.226,0.021
	c-0.088,0-0.176-0.012-0.26-0.037c-0.076-0.021-0.146-0.061-0.207-0.112c-0.061-0.05-0.109-0.111-0.142-0.183
	c-0.035-0.078-0.054-0.164-0.054-0.252L33.162,34.99z"/>
<path fill="#FFFFFF" d="M36.016,35.535h-0.121v-0.352h-0.008c-0.02,0.061-0.05,0.116-0.09,0.165
	c-0.039,0.048-0.086,0.089-0.137,0.122c-0.053,0.035-0.109,0.061-0.171,0.077s-0.124,0.024-0.188,0.024
	c-0.083,0.002-0.165-0.01-0.244-0.035c-0.06-0.02-0.114-0.05-0.163-0.092c-0.041-0.036-0.074-0.08-0.1-0.129
	c-0.024-0.046-0.042-0.095-0.054-0.145c-0.009-0.047-0.015-0.094-0.019-0.142c0-0.046,0-0.085,0-0.12v-1.017h0.121v1.034
	c0,0.051,0.004,0.104,0.01,0.154c0.007,0.062,0.025,0.121,0.055,0.176c0.035,0.059,0.082,0.107,0.14,0.145
	c0.079,0.044,0.169,0.064,0.26,0.06c0.085,0.001,0.171-0.017,0.249-0.051c0.07-0.032,0.135-0.081,0.186-0.142
	c0.051-0.064,0.089-0.138,0.112-0.217c0.026-0.089,0.04-0.182,0.04-0.274v-0.875h0.121V35.535z"/>
<path fill="#FFFFFF" d="M36.609,33.263v2.272h-0.121v-2.272H36.609z"/>
<path fill="#FFFFFF" d="M37.697,34.004h-0.359v1.143c-0.002,0.053,0.006,0.105,0.023,0.154c0.013,0.037,0.037,0.067,0.068,0.089
	c0.034,0.021,0.073,0.034,0.113,0.036c0.051,0.004,0.102,0.004,0.151,0v0.105c-0.06,0.006-0.12,0.006-0.18,0
	c-0.055-0.003-0.107-0.02-0.155-0.047c-0.045-0.029-0.082-0.07-0.104-0.119c-0.028-0.07-0.038-0.145-0.03-0.219v-1.143h-0.301
	v-0.101h0.301v-0.509h0.113v0.509h0.357L37.697,34.004z"/>
<path fill="#FFFFFF" d="M38.026,33.59v-0.327h0.121v0.327H38.026z M38.026,35.535v-1.632h0.121v1.637L38.026,35.535z"/>
<path fill="#FFFFFF" d="M38.622,33.903h0.12v0.351h0.006c0.021-0.06,0.052-0.115,0.091-0.164c0.04-0.047,0.087-0.088,0.138-0.123
	c0.053-0.033,0.109-0.059,0.17-0.076c0.061-0.017,0.124-0.025,0.188-0.025c0.082-0.002,0.165,0.01,0.244,0.035
	c0.061,0.02,0.115,0.051,0.164,0.092c0.041,0.037,0.074,0.08,0.1,0.129c0.023,0.047,0.041,0.096,0.053,0.145
	c0.01,0.047,0.017,0.094,0.02,0.143c0,0.045,0,0.085,0,0.119v1.018h-0.12V34.51c-0.001-0.052-0.004-0.103-0.011-0.153
	c-0.006-0.062-0.024-0.122-0.055-0.177c-0.033-0.059-0.082-0.109-0.142-0.145c-0.078-0.045-0.167-0.065-0.257-0.061
	c-0.086-0.002-0.172,0.016-0.25,0.051c-0.07,0.033-0.133,0.082-0.184,0.143c-0.051,0.064-0.09,0.137-0.113,0.216
	c-0.027,0.089-0.041,0.183-0.04,0.276v0.885h-0.12L38.622,33.903z"/>
<path fill="#FFFFFF" d="M41.717,33.903v1.55c-0.001,0.089-0.012,0.178-0.032,0.266c-0.021,0.082-0.06,0.16-0.113,0.226
	c-0.057,0.069-0.131,0.124-0.214,0.157c-0.11,0.043-0.228,0.063-0.346,0.059c-0.082,0.001-0.164-0.008-0.244-0.027
	c-0.07-0.016-0.139-0.045-0.199-0.084c-0.059-0.041-0.105-0.096-0.139-0.158c-0.037-0.074-0.057-0.156-0.059-0.238h0.121
	c0.004,0.064,0.021,0.127,0.055,0.184c0.027,0.05,0.066,0.093,0.113,0.125c0.049,0.033,0.104,0.057,0.161,0.072
	c0.063,0.016,0.126,0.022,0.19,0.021c0.097,0.004,0.193-0.014,0.281-0.051c0.07-0.029,0.132-0.074,0.18-0.132
	c0.045-0.054,0.078-0.116,0.094-0.185c0.02-0.067,0.028-0.137,0.029-0.207v-0.379h-0.011c-0.1,0.234-0.335,0.384-0.59,0.373
	c-0.107,0.002-0.215-0.019-0.313-0.063c-0.084-0.039-0.159-0.099-0.218-0.172c-0.06-0.076-0.104-0.163-0.131-0.256
	c-0.029-0.104-0.044-0.211-0.043-0.318c-0.001-0.104,0.015-0.209,0.046-0.309c0.028-0.094,0.074-0.18,0.137-0.256
	c0.061-0.074,0.139-0.135,0.225-0.176c0.214-0.098,0.461-0.085,0.663,0.034c0.107,0.064,0.189,0.163,0.233,0.28h0.008v-0.339
	L41.717,33.903z M41,33.971c-0.09-0.003-0.18,0.018-0.26,0.061c-0.07,0.039-0.133,0.093-0.182,0.158
	c-0.048,0.068-0.084,0.145-0.107,0.227c-0.024,0.082-0.037,0.169-0.037,0.256c0,0.092,0.012,0.184,0.037,0.272
	c0.023,0.082,0.062,0.159,0.113,0.226c0.05,0.063,0.112,0.115,0.185,0.15c0.079,0.039,0.165,0.059,0.253,0.057
	c0.09,0.002,0.18-0.018,0.262-0.058c0.072-0.036,0.137-0.09,0.185-0.155c0.052-0.068,0.091-0.145,0.113-0.227
	c0.048-0.174,0.048-0.356,0-0.529c-0.022-0.083-0.062-0.16-0.113-0.227c-0.05-0.064-0.112-0.117-0.185-0.154
	c-0.082-0.041-0.172-0.063-0.264-0.062V33.971z"/>
<path fill="#FFFFFF" d="M44.669,33.912c-0.003-0.088-0.023-0.176-0.062-0.255c-0.037-0.071-0.089-0.133-0.152-0.181
	c-0.066-0.053-0.144-0.092-0.226-0.113c-0.095-0.025-0.192-0.038-0.29-0.037c-0.068,0-0.136,0.008-0.203,0.022
	c-0.071,0.015-0.141,0.04-0.203,0.078c-0.063,0.036-0.115,0.087-0.154,0.149c-0.043,0.07-0.064,0.151-0.062,0.233
	c-0.005,0.081,0.019,0.161,0.067,0.226c0.045,0.059,0.103,0.106,0.169,0.14c0.079,0.037,0.162,0.065,0.247,0.083
	c0.094,0.021,0.189,0.043,0.284,0.062s0.192,0.042,0.284,0.067c0.088,0.026,0.172,0.064,0.25,0.113
	c0.072,0.045,0.132,0.106,0.176,0.179c0.047,0.083,0.07,0.179,0.067,0.274c0.003,0.105-0.023,0.209-0.077,0.3
	c-0.049,0.079-0.115,0.146-0.193,0.198c-0.078,0.053-0.165,0.091-0.258,0.112c-0.088,0.022-0.18,0.034-0.271,0.034
	c-0.127,0.001-0.253-0.014-0.375-0.043c-0.111-0.025-0.215-0.073-0.306-0.141c-0.087-0.065-0.158-0.15-0.206-0.25
	c-0.052-0.116-0.076-0.244-0.07-0.371h0.141c-0.01,0.108,0.009,0.217,0.053,0.316c0.041,0.084,0.102,0.156,0.178,0.211
	c0.08,0.058,0.17,0.099,0.266,0.12c0.105,0.024,0.213,0.036,0.32,0.036c0.073,0,0.146-0.009,0.218-0.025
	c0.075-0.016,0.147-0.045,0.214-0.086c0.064-0.04,0.12-0.095,0.162-0.158c0.045-0.076,0.068-0.162,0.064-0.249
	c0.004-0.083-0.02-0.165-0.066-0.233c-0.047-0.063-0.107-0.112-0.176-0.146c-0.08-0.039-0.163-0.069-0.249-0.09
	c-0.093-0.021-0.188-0.043-0.284-0.062c-0.098-0.02-0.189-0.042-0.283-0.067c-0.087-0.021-0.17-0.057-0.248-0.102
	c-0.07-0.043-0.131-0.101-0.175-0.17c-0.048-0.08-0.071-0.173-0.066-0.266c-0.003-0.098,0.021-0.193,0.067-0.278
	c0.044-0.075,0.104-0.14,0.178-0.188c0.076-0.05,0.159-0.085,0.248-0.104c0.088-0.023,0.178-0.034,0.269-0.034
	c0.114-0.001,0.228,0.012,0.339,0.039c0.098,0.024,0.189,0.066,0.27,0.124c0.079,0.058,0.143,0.133,0.188,0.219
	c0.049,0.1,0.076,0.21,0.08,0.322L44.669,33.912z"/>
<path fill="#FFFFFF" d="M45.299,34.732v0.02c-0.002,0.093,0.012,0.185,0.037,0.273c0.023,0.082,0.063,0.158,0.113,0.227
	c0.049,0.066,0.113,0.119,0.188,0.156c0.082,0.039,0.172,0.059,0.263,0.057c0.142,0.008,0.28-0.038,0.39-0.129
	c0.102-0.096,0.17-0.221,0.197-0.357h0.119c-0.024,0.169-0.107,0.324-0.233,0.439c-0.136,0.106-0.304,0.16-0.476,0.152
	c-0.109,0.002-0.219-0.02-0.318-0.064c-0.087-0.043-0.164-0.104-0.226-0.179c-0.062-0.079-0.107-0.171-0.134-0.268
	c-0.031-0.108-0.046-0.22-0.045-0.332c0-0.112,0.016-0.224,0.047-0.33c0.028-0.099,0.076-0.188,0.141-0.269
	c0.061-0.08,0.137-0.145,0.227-0.19c0.198-0.093,0.428-0.097,0.628-0.008c0.088,0.04,0.165,0.099,0.226,0.173
	c0.061,0.076,0.107,0.162,0.137,0.254c0.029,0.102,0.045,0.206,0.045,0.311c0,0.011,0,0.023,0,0.037s0,0.024,0,0.033L45.299,34.732z
	 M46.501,34.628c-0.005-0.086-0.02-0.171-0.046-0.253c-0.023-0.076-0.063-0.148-0.112-0.211c-0.051-0.06-0.113-0.109-0.183-0.145
	c-0.076-0.037-0.16-0.056-0.244-0.054c-0.172-0.004-0.337,0.07-0.447,0.202c-0.052,0.063-0.092,0.135-0.118,0.211
	c-0.027,0.081-0.044,0.164-0.051,0.249H46.501z"/>
<path fill="#FFFFFF" d="M47.127,34.262h0.01c0.016-0.055,0.044-0.105,0.082-0.149c0.04-0.048,0.088-0.089,0.143-0.12
	c0.059-0.035,0.122-0.063,0.188-0.078c0.07-0.019,0.143-0.026,0.215-0.023v0.126c-0.072-0.009-0.146-0.001-0.218,0.019
	c-0.089,0.025-0.17,0.074-0.235,0.141c-0.027,0.029-0.053,0.06-0.078,0.092c-0.021,0.03-0.04,0.063-0.055,0.098
	c-0.016,0.039-0.027,0.08-0.035,0.121c-0.009,0.053-0.014,0.106-0.016,0.16v0.895h-0.121v-1.638h0.121V34.262z"/>
<path fill="#FFFFFF" d="M48.752,35.535h-0.15l-0.662-1.632h0.135l0.593,1.497h0.006l0.554-1.497h0.133L48.752,35.535z"/>
<path fill="#FFFFFF" d="M49.666,33.59v-0.327h0.121v0.327H49.666z M49.666,35.535v-1.632h0.121v1.637L49.666,35.535z"/>
<path fill="#FFFFFF" d="M51.496,34.405c-0.004-0.067-0.022-0.132-0.055-0.19c-0.029-0.055-0.07-0.101-0.119-0.137
	c-0.053-0.038-0.109-0.066-0.172-0.083c-0.066-0.021-0.137-0.03-0.207-0.029c-0.094-0.002-0.187,0.02-0.271,0.062
	c-0.077,0.041-0.145,0.097-0.198,0.166c-0.054,0.07-0.095,0.149-0.12,0.234c-0.028,0.088-0.042,0.181-0.041,0.273
	c-0.001,0.104,0.013,0.205,0.038,0.305c0.021,0.088,0.061,0.172,0.113,0.244c0.053,0.068,0.121,0.123,0.197,0.161
	c0.088,0.039,0.182,0.059,0.277,0.056c0.072,0.002,0.145-0.012,0.211-0.037c0.064-0.024,0.123-0.061,0.174-0.105
	s0.092-0.1,0.121-0.16c0.033-0.064,0.055-0.133,0.064-0.205h0.121c-0.012,0.091-0.039,0.18-0.08,0.262
	c-0.076,0.146-0.205,0.258-0.362,0.311c-0.08,0.027-0.164,0.042-0.249,0.041c-0.117,0.003-0.232-0.021-0.339-0.07
	c-0.091-0.045-0.171-0.111-0.231-0.193c-0.063-0.083-0.107-0.178-0.133-0.278c-0.03-0.107-0.045-0.218-0.045-0.329
	c0-0.11,0.017-0.221,0.05-0.325c0.03-0.098,0.079-0.188,0.145-0.267c0.064-0.077,0.145-0.139,0.235-0.182
	c0.101-0.046,0.211-0.069,0.322-0.067c0.084,0,0.169,0.011,0.25,0.033c0.074,0.021,0.145,0.056,0.206,0.102
	c0.062,0.044,0.112,0.103,0.148,0.169c0.04,0.075,0.063,0.157,0.071,0.241H51.496z"/>
<path fill="#FFFFFF" d="M52.057,34.732v0.02c0,0.093,0.014,0.186,0.039,0.273c0.024,0.082,0.063,0.158,0.113,0.227
	c0.051,0.065,0.115,0.119,0.188,0.156c0.082,0.039,0.173,0.059,0.263,0.057c0.141,0.008,0.277-0.037,0.386-0.126
	c0.102-0.097,0.171-0.222,0.198-0.358h0.121c-0.024,0.169-0.107,0.324-0.233,0.439c-0.135,0.107-0.304,0.161-0.476,0.152
	c-0.109,0.003-0.217-0.02-0.316-0.064c-0.088-0.042-0.164-0.104-0.227-0.178c-0.061-0.08-0.106-0.172-0.134-0.268
	c-0.03-0.109-0.045-0.221-0.044-0.333c-0.001-0.112,0.015-0.223,0.046-0.33c0.027-0.101,0.074-0.194,0.138-0.275
	c0.061-0.079,0.138-0.146,0.227-0.191c0.102-0.05,0.213-0.075,0.326-0.072c0.105-0.002,0.209,0.021,0.303,0.064
	c0.088,0.04,0.165,0.099,0.227,0.173c0.061,0.076,0.106,0.162,0.135,0.254c0.031,0.102,0.047,0.206,0.047,0.312
	c0.001,0.012,0.001,0.024,0,0.036c0,0.015,0,0.025,0,0.033H52.057z M53.26,34.628c-0.004-0.086-0.018-0.171-0.044-0.253
	c-0.024-0.077-0.062-0.148-0.113-0.211c-0.05-0.061-0.112-0.109-0.182-0.145c-0.076-0.037-0.159-0.056-0.244-0.054
	c-0.089-0.003-0.178,0.017-0.258,0.056c-0.073,0.035-0.137,0.085-0.188,0.146c-0.051,0.063-0.089,0.135-0.113,0.211
	c-0.027,0.08-0.045,0.164-0.052,0.249H53.26z"/>
<path fill="#FFFFFF" d="M53.811,34.99c0.002,0.07,0.02,0.139,0.051,0.201c0.027,0.057,0.065,0.108,0.113,0.15
	c0.049,0.042,0.105,0.074,0.166,0.094c0.067,0.021,0.137,0.033,0.207,0.031c0.058,0,0.114-0.004,0.171-0.013
	c0.059-0.01,0.115-0.028,0.169-0.054c0.05-0.024,0.094-0.061,0.127-0.105c0.037-0.051,0.055-0.112,0.053-0.174
	c0.005-0.078-0.025-0.154-0.083-0.207c-0.062-0.051-0.133-0.09-0.209-0.113c-0.089-0.026-0.179-0.047-0.271-0.061
	c-0.092-0.016-0.184-0.041-0.271-0.072c-0.078-0.029-0.149-0.076-0.207-0.137c-0.1-0.133-0.11-0.313-0.028-0.457
	c0.035-0.053,0.083-0.098,0.138-0.129c0.059-0.032,0.123-0.055,0.189-0.068c0.068-0.014,0.139-0.021,0.209-0.021
	c0.081,0,0.162,0.01,0.24,0.029c0.07,0.017,0.136,0.049,0.191,0.094c0.056,0.043,0.1,0.098,0.128,0.161
	c0.032,0.075,0.048,0.157,0.046,0.238h-0.12c0.001-0.065-0.011-0.131-0.038-0.19c-0.021-0.051-0.057-0.096-0.102-0.129
	c-0.047-0.034-0.099-0.059-0.154-0.074c-0.063-0.016-0.127-0.023-0.191-0.023c-0.055,0-0.111,0.006-0.166,0.018
	c-0.053,0.009-0.104,0.027-0.151,0.053c-0.044,0.024-0.083,0.059-0.112,0.1c-0.029,0.043-0.045,0.094-0.043,0.146
	c-0.003,0.058,0.014,0.113,0.047,0.159c0.033,0.042,0.076,0.075,0.125,0.096c0.057,0.027,0.115,0.047,0.176,0.061l0.195,0.044
	c0.076,0.015,0.152,0.032,0.227,0.054c0.065,0.018,0.128,0.045,0.186,0.082c0.051,0.034,0.093,0.08,0.123,0.135
	c0.031,0.064,0.046,0.137,0.043,0.21c0.004,0.077-0.018,0.154-0.061,0.22c-0.039,0.057-0.092,0.104-0.152,0.139
	c-0.064,0.035-0.133,0.061-0.205,0.073c-0.075,0.014-0.15,0.021-0.227,0.021c-0.088,0-0.176-0.012-0.26-0.037
	c-0.076-0.022-0.147-0.061-0.208-0.112c-0.06-0.05-0.107-0.112-0.14-0.183c-0.035-0.079-0.054-0.164-0.055-0.252L53.811,34.99z"/>
<path fill="#FFFFFF" d="M22.469,19.117v2.142h-5.594v2.676h4.848v1.978h-4.848v4.783h-2.546V19.117H22.469z"/>
<path fill="#FFFFFF" d="M28.813,19.117l4.328,11.578h-2.643l-0.876-2.578h-4.33l-0.904,2.578h-2.565l4.379-11.578H28.813z
	 M28.957,26.219l-1.458-4.249h-0.033l-1.51,4.249H28.957z"/>
<path fill="#FFFFFF" d="M41.234,22.206c-0.15-0.244-0.342-0.46-0.564-0.641c-0.23-0.186-0.49-0.332-0.77-0.431
	c-0.291-0.103-0.596-0.154-0.904-0.152c-0.508-0.015-1.01,0.099-1.461,0.331c-0.392,0.215-0.725,0.521-0.973,0.893
	c-0.254,0.39-0.438,0.821-0.543,1.274c-0.113,0.483-0.17,0.978-0.17,1.475c0,0.478,0.057,0.955,0.17,1.419
	c0.106,0.443,0.291,0.864,0.543,1.243c0.25,0.368,0.582,0.671,0.973,0.883c0.451,0.234,0.953,0.348,1.461,0.333
	c0.777,0,1.385-0.237,1.822-0.714c0.438-0.475,0.705-1.102,0.803-1.881h2.465c-0.053,0.678-0.223,1.342-0.502,1.962
	c-0.255,0.563-0.619,1.07-1.07,1.493c-0.451,0.412-0.982,0.73-1.559,0.934c-0.63,0.222-1.294,0.331-1.961,0.324
	c-0.82,0.013-1.635-0.145-2.392-0.463c-0.683-0.289-1.294-0.724-1.792-1.272c-0.496-0.555-0.877-1.202-1.119-1.906
	c-0.266-0.758-0.398-1.556-0.391-2.358c-0.008-0.819,0.125-1.634,0.391-2.408c0.242-0.713,0.623-1.371,1.119-1.937
	c0.495-0.558,1.107-1.001,1.792-1.298c1.335-0.55,2.819-0.618,4.199-0.194c0.552,0.176,1.067,0.448,1.523,0.804
	c0.456,0.356,0.835,0.802,1.115,1.309c0.302,0.551,0.489,1.158,0.552,1.783h-2.467C41.484,22.724,41.385,22.451,41.234,22.206z"/>
<path fill="#FFFFFF" d="M47.93,27.841c0.133,0.261,0.326,0.486,0.564,0.656c0.246,0.175,0.524,0.302,0.818,0.373
	c0.318,0.082,0.645,0.123,0.973,0.122c0.244-0.002,0.486-0.023,0.727-0.061c0.254-0.035,0.5-0.109,0.73-0.219
	c0.221-0.105,0.414-0.26,0.564-0.451c0.156-0.208,0.236-0.462,0.227-0.722c0.011-0.285-0.098-0.561-0.301-0.762
	c-0.229-0.213-0.498-0.378-0.791-0.487c-0.359-0.14-0.729-0.254-1.104-0.339c-0.41-0.097-0.824-0.205-1.244-0.324
	c-0.429-0.107-0.852-0.239-1.266-0.396c-0.395-0.148-0.767-0.354-1.103-0.61c-0.716-0.536-1.122-1.391-1.085-2.285
	c-0.014-0.541,0.118-1.076,0.381-1.548c0.249-0.433,0.588-0.807,0.996-1.095c0.424-0.294,0.896-0.511,1.396-0.64
	c0.507-0.139,1.03-0.21,1.556-0.211c0.588-0.002,1.173,0.065,1.744,0.203c0.531,0.124,1.035,0.347,1.483,0.656
	c0.43,0.3,0.782,0.697,1.03,1.159c0.267,0.53,0.397,1.119,0.381,1.712h-2.465c-0.008-0.299-0.083-0.592-0.219-0.859
	c-0.115-0.218-0.285-0.403-0.492-0.536c-0.217-0.134-0.457-0.228-0.707-0.276c-0.285-0.055-0.576-0.083-0.866-0.081
	c-0.208,0-0.414,0.022-0.617,0.064c-0.2,0.04-0.392,0.117-0.565,0.226c-0.164,0.106-0.305,0.245-0.414,0.407
	c-0.114,0.185-0.17,0.399-0.162,0.616c-0.009,0.192,0.037,0.383,0.131,0.55c0.129,0.175,0.307,0.31,0.51,0.389
	c0.341,0.149,0.693,0.269,1.055,0.357c0.452,0.119,1.038,0.269,1.758,0.452c0.218,0.044,0.518,0.121,0.904,0.236
	c0.406,0.123,0.792,0.305,1.145,0.542c0.392,0.261,0.726,0.601,0.98,0.998c0.275,0.416,0.412,0.947,0.412,1.597
	c0.005,0.508-0.1,1.011-0.307,1.474c-0.209,0.459-0.523,0.862-0.917,1.177c-0.448,0.353-0.96,0.613-1.507,0.77
	c-0.678,0.194-1.381,0.287-2.086,0.276c-0.625,0-1.25-0.078-1.855-0.235c-0.571-0.144-1.111-0.394-1.589-0.738
	c-0.458-0.333-0.831-0.769-1.089-1.272c-0.283-0.573-0.418-1.208-0.391-1.848h2.464C47.709,27.197,47.781,27.535,47.93,27.841z"/>
</svg>
